{
  "accessors": [
    {
      "bufferView": 2,
      "componentType": 5126,
      "count": 8861,
      "max": [
        6.306434154510498,
        7.525937080383301,
        4.380821228027344
      ],
      "min": [
        -6.306433200836182,
        -9.174697875976563,
        1.813662052154541
      ],
      "type": "VEC3"
    },
    {
      "bufferView": 2,
      "byteOffset": 106332,
      "componentType": 5126,
      "count": 8861,
      "max": [
        1.0,
        1.0,
        1.0
      ],
      "min": [
        -1.0,
        -1.0,
        -1.0
      ],
      "type": "VEC3"
    },
    {
      "bufferView": 1,
      "componentType": 5126,
      "count": 8861,
      "max": [
        0.84375,
        0.03125
      ],
      "min": [
        0.03125,
        0.03125
      ],
      "type": "VEC2"
    },
    {
      "bufferView": 0,
      "componentType": 5125,
      "count": 30675,
      "type": "SCALAR"
    },
    {
      "bufferView": 2,
      "byteOffset": 212664,
      "componentType": 5126,
      "count": 8685,
      "max": [
        6.943427085876465,
        7.467796802520752,
        4.272425174713135
      ],
      "min": [
        -1.4877560138702393,
        -9.144696235656738,
        1.813662052154541
      ],
      "type": "VEC3"
    },
    {
      "bufferView": 2,
      "byteOffset": 316884,
      "componentType": 5126,
      "count": 8685,
      "max": [
        1.0,
        1.0,
        1.0
      ],
      "min": [
        -1.0,
        -1.0,
        -1.0
      ],
      "type": "VEC3"
    },
    {
      "bufferView": 1,
      "byteOffset": 70888,
      "componentType": 5126,
      "count": 8685,
      "max": [
        0.84375,
        0.03125
      ],
      "min": [
        0.03125,
        0.03125
      ],
      "type": "VEC2"
    },
    {
      "bufferView": 0,
      "byteOffset": 122700,
      "componentType": 5125,
      "count": 29685,
      "type": "SCALAR"
    },
    {
      "bufferView": 2,
      "byteOffset": 421104,
      "componentType": 5126,
      "count": 9022,
      "max": [
        6.399800777435303,
        9.225945472717285,
        5.161770820617676
      ],
      "min": [
        -6.30856990814209,
        -8.807197570800781,
        2.442194938659668
      ],
      "type": "VEC3"
    },
    {
      "bufferView": 2,
      "byteOffset": 529368,
      "componentType": 5126,
      "count": 9022,
      "max": [
        1.0,
        1.0,
        1.0
      ],
      "min": [
        -1.0,
        -1.0,
        -1.0
      ],
      "type": "VEC3"
    },
    {
      "bufferView": 1,
      "byteOffset": 140368,
      "componentType": 5126,
      "count": 9022,
      "max": [
        0.84375,
        0.03125
      ],
      "min": [
        0.03125,
        0.03125
      ],
      "type": "VEC2"
    },
    {
      "bufferView": 0,
      "byteOffset": 241440,
      "componentType": 5125,
      "count": 31203,
      "type": "SCALAR"
    },
    {
      "bufferView": 2,
      "byteOffset": 637632,
      "componentType": 5126,
      "count": 9139,
      "max": [
        6.308570861816406,
        9.225936889648438,
        4.475097179412842
      ],
      "min": [
        -6.30856990814209,
        -9.144696235656738,
        2.17850399017334
      ],
      "type": "VEC3"
    },
    {
      "bufferView": 2,
      "byteOffset": 747300,
      "componentType": 5126,
      "count": 9139,
      "max": [
        1.0,
        1.0,
        1.0
      ],
      "min": [
        -1.0,
        -1.0,
        -1.0
      ],
      "type": "VEC3"
    },
    {
      "bufferView": 1,
      "byteOffset": 212544,
      "componentType": 5126,
      "count": 9139,
      "max": [
        0.90625,
        0.03125
      ],
      "min": [
        0.03125,
        0.03125
      ],
      "type": "VEC2"
    },
    {
      "bufferView": 0,
      "byteOffset": 366252,
      "componentType": 5125,
      "count": 31779,
      "type": "SCALAR"
    },
    {
      "bufferView": 2,
      "byteOffset": 856968,
      "componentType": 5126,
      "count": 9228,
      "max": [
        6.770081996917725,
        9.225945472717285,
        5.274133205413818
      ],
      "min": [
        -6.967700958251953,
        -8.24470329284668,
        2.4345719814300537
      ],
      "type": "VEC3"
    },
    {
      "bufferView": 2,
      "byteOffset": 967704,
      "componentType": 5126,
      "count": 9228,
      "max": [
        1.0,
        1.0,
        1.0
      ],
      "min": [
        -1.0,
        -1.0,
        -1.0
      ],
      "type": "VEC3"
    },
    {
      "bufferView": 1,
      "byteOffset": 285656,
      "componentType": 5126,
      "count": 9228,
      "max": [
        0.90625,
        0.03125
      ],
      "min": [
        0.03125,
        0.03125
      ],
      "type": "VEC2"
    },
    {
      "bufferView": 0,
      "byteOffset": 493368,
      "componentType": 5125,
      "count": 30909,
      "type": "SCALAR"
    },
    {
      "bufferView": 2,
      "byteOffset": 1078440,
      "componentType": 5126,
      "count": 8459,
      "max": [
        6.967712879180908,
        6.033620834350586,
        4.408960819244385
      ],
      "min": [
        -6.967711925506592,
        -4.459702014923096,
        2.1849429607391357
      ],
      "type": "VEC3"
    },
    {
      "bufferView": 2,
      "byteOffset": 1179948,
      "componentType": 5126,
      "count": 8459,
      "max": [
        1.0,
        1.0,
        1.0
      ],
      "min": [
        -1.0,
        -1.0,
        -1.0
      ],
      "type": "VEC3"
    },
    {
      "bufferView": 1,
      "byteOffset": 359480,
      "componentType": 5126,
      "count": 8459,
      "max": [
        0.84375,
        0.09375
      ],
      "min": [
        0.03125,
        0.03125
      ],
      "type": "VEC2"
    },
    {
      "bufferView": 0,
      "byteOffset": 617004,
      "componentType": 5125,
      "count": 30864,
      "type": "SCALAR"
    },
    {
      "bufferView": 2,
      "byteOffset": 1281456,
      "componentType": 5126,
      "count": 1154,
      "max": [
        2.856297016143799,
        4.2677998542785645,
        3.257411003112793
      ],
      "min": [
        -6.770081996917725,
        -0.5872008800506592,
        2.1849429607391357
      ],
      "type": "VEC3"
    },
    {
      "bufferView": 2,
      "byteOffset": 1295304,
      "componentType": 5126,
      "count": 1154,
      "max": [
        1.0,
        1.0,
        1.0
      ],
      "min": [
        -1.0,
        -1.0,
        -1.0
      ],
      "type": "VEC3"
    },
    {
      "bufferView": 1,
      "byteOffset": 427152,
      "componentType": 5126,
      "count": 1154,
      "max": [
        0.78125,
        0.03125
      ],
      "min": [
        0.21875,
        0.03125
      ],
      "type": "VEC2"
    },
    {
      "bufferView": 0,
      "byteOffset": 740460,
      "componentType": 5125,
      "count": 4422,
      "type": "SCALAR"
    },
    {
      "bufferView": 2,
      "byteOffset": 1309152,
      "componentType": 5126,
      "count": 9399,
      "max": [
        6.3051910400390625,
        7.886575222015381,
        5.08292818069458
      ],
      "min": [
        -6.3051910400390625,
        -6.132193088531494,
        2.267749071121216
      ],
      "type": "VEC3"
    },
    {
      "bufferView": 2,
      "byteOffset": 1421940,
      "componentType": 5126,
      "count": 9399,
      "max": [
        1.0,
        1.0,
        1.0
      ],
      "min": [
        -1.0,
        -1.0,
        -1.0
      ],
      "type": "VEC3"
    },
    {
      "bufferView": 1,
      "byteOffset": 436384,
      "componentType": 5126,
      "count": 9399,
      "max": [
        0.59375,
        0.09375
      ],
      "min": [
        0.03125,
        0.03125
      ],
      "type": "VEC2"
    },
    {
      "bufferView": 0,
      "byteOffset": 758148,
      "componentType": 5125,
      "count": 25092,
      "type": "SCALAR"
    },
    {
      "bufferView": 2,
      "byteOffset": 1534728,
      "componentType": 5126,
      "count": 9805,
      "max": [
        4.835792064666748,
        7.460538864135742,
        4.121066093444824
      ],
      "min": [
        -6.558925151824951,
        -7.754732131958008,
        2.333888053894043
      ],
      "type": "VEC3"
    },
    {
      "bufferView": 2,
      "byteOffset": 1652388,
      "componentType": 5126,
      "count": 9805,
      "max": [
        1.0,
        1.0,
        1.0
      ],
      "min": [
        -1.0,
        -1.0,
        -1.0
      ],
      "type": "VEC3"
    },
    {
      "bufferView": 1,
      "byteOffset": 511576,
      "componentType": 5126,
      "count": 9805,
      "max": [
        0.71875,
        0.03125
      ],
      "min": [
        0.03125,
        0.03125
      ],
      "type": "VEC2"
    },
    {
      "bufferView": 0,
      "byteOffset": 858516,
      "componentType": 5125,
      "count": 21846,
      "type": "SCALAR"
    },
    {
      "bufferView": 2,
      "byteOffset": 1770048,
      "componentType": 5126,
      "count": 9832,
      "max": [
        6.752575874328613,
        8.932188987731934,
        3.656857967376709
      ],
      "min": [
        -6.752574920654297,
        -1.0896869897842407,
        1.8346589803695679
      ],
      "type": "VEC3"
    },
    {
      "bufferView": 2,
      "byteOffset": 1888032,
      "componentType": 5126,
      "count": 9832,
      "max": [
        1.0,
        1.0,
        1.0
      ],
      "min": [
        -1.0,
        -1.0,
        -1.0
      ],
      "type": "VEC3"
    },
    {
      "bufferView": 1,
      "byteOffset": 590016,
      "componentType": 5126,
      "count": 9832,
      "max": [
        0.90625,
        0.03125
      ],
      "min": [
        0.03125,
        0.03125
      ],
      "type": "VEC2"
    },
    {
      "bufferView": 0,
      "byteOffset": 945900,
      "componentType": 5125,
      "count": 28095,
      "type": "SCALAR"
    },
    {
      "bufferView": 2,
      "byteOffset": 2006016,
      "componentType": 5126,
      "count": 9314,
      "max": [
        6.3051910400390625,
        8.932188987731934,
        3.656857967376709
      ],
      "min": [
        -6.3051910400390625,
        -2.2304880619049072,
        1.9832799434661865
      ],
      "type": "VEC3"
    },
    {
      "bufferView": 2,
      "byteOffset": 2117784,
      "componentType": 5126,
      "count": 9314,
      "max": [
        1.0,
        1.0,
        1.0
      ],
      "min": [
        -1.0,
        -1.0,
        -1.0
      ],
      "type": "VEC3"
    },
    {
      "bufferView": 1,
      "byteOffset": 668672,
      "componentType": 5126,
      "count": 9314,
      "max": [
        0.90625,
        0.09375
      ],
      "min": [
        0.03125,
        0.03125
      ],
      "type": "VEC2"
    },
    {
      "bufferView": 0,
      "byteOffset": 1058280,
      "componentType": 5125,
      "count": 25818,
      "type": "SCALAR"
    },
    {
      "bufferView": 2,
      "byteOffset": 2229552,
      "componentType": 5126,
      "count": 8712,
      "max": [
        4.80557918548584,
        8.261489868164063,
        5.08292818069458
      ],
      "min": [
        -6.3051910400390625,
        -7.080391883850098,
        2.3224329948425293
      ],
      "type": "VEC3"
    },
    {
      "bufferView": 2,
      "byteOffset": 2334096,
      "componentType": 5126,
      "count": 8712,
      "max": [
        1.0,
        1.0,
        1.0
      ],
      "min": [
        -1.0,
        -1.0,
        -1.0
      ],
      "type": "VEC3"
    },
    {
      "bufferView": 1,
      "byteOffset": 743184,
      "componentType": 5126,
      "count": 8712,
      "max": [
        0.65625,
        0.09375
      ],
      "min": [
        0.03125,
        0.03125
      ],
      "type": "VEC2"
    },
    {
      "bufferView": 0,
      "byteOffset": 1161552,
      "componentType": 5125,
      "count": 22614,
      "type": "SCALAR"
    }
  ],
  "asset": {
    "extras": {
      "author": "Euvand (https://sketchfab.com/Euvand)",
      "license": "CC-BY-4.0 (http://creativecommons.org/licenses/by/4.0/)",
      "source": "https://sketchfab.com/3d-models/crossfire-hornet-a4144ad958c6437ba24cda5f95611184",
      "title": "Crossfire Hornet"
    },
    "generator": "Sketchfab-12.68.0",
    "version": "2.0"
  },
  "bufferViews": [
    {
      "buffer": 0,
      "byteLength": 1252008,
      "name": "floatBufferViews",
      "target": 34963
    },
    {
      "buffer": 0,
      "byteLength": 812880,
      "byteOffset": 1252008,
      "byteStride": 8,
      "name": "floatBufferViews",
      "target": 34962
    },
    {
      "buffer": 0,
      "byteLength": 2438640,
      "byteOffset": 2064888,
      "byteStride": 12,
      "name": "floatBufferViews",
      "target": 34962
    }
  ],
  "buffers": [
    {
      "byteLength": 4503528,
      "uri": "scene.bin"
    }
  ],
  "extensionsUsed": [
    "KHR_materials_clearcoat"
  ],
  "images": [
    {
      "uri": "textures/PartMaterialClone_baseColor.png"
    }
  ],
  "materials": [
    {
      "doubleSided": true,
      "extensions": {
        "KHR_materials_clearcoat": {
          "clearcoatFactor": 0.45903201219512196,
          "clearcoatRoughnessFactor": 0.04
        }
      },
      "name": "PartMaterialClone",
      "pbrMetallicRoughness": {
        "baseColorFactor": [
          0.8833351573852823,
          0.8833351573852823,
          0.8833351573852823,
          1.0
        ],
        "baseColorTexture": {
          "index": 0
        },
        "metallicFactor": 0.06878810975609756
      }
    }
  ],
  "meshes": [
    {
      "name": "Object_0",
      "primitives": [
        {
          "attributes": {
            "NORMAL": 1,
            "POSITION": 0,
            "TEXCOORD_0": 2
          },
          "indices": 3,
          "material": 0,
          "mode": 4
        }
      ]
    },
    {
      "name": "Object_1",
      "primitives": [
        {
          "attributes": {
            "NORMAL": 5,
            "POSITION": 4,
            "TEXCOORD_0": 6
          },
          "indices": 7,
          "material": 0,
          "mode": 4
        }
      ]
    },
    {
      "name": "Object_2",
      "primitives": [
        {
          "attributes": {
            "NORMAL": 9,
            "POSITION": 8,
            "TEXCOORD_0": 10
          },
          "indices": 11,
          "material": 0,
          "mode": 4
        }
      ]
    },
    {
      "name": "Object_3",
      "primitives": [
        {
          "attributes": {
            "NORMAL": 13,
            "POSITION": 12,
            "TEXCOORD_0": 14
          },
          "indices": 15,
          "material": 0,
          "mode": 4
        }
      ]
    },
    {
      "name": "Object_4",
      "primitives": [
        {
          "attributes": {
            "NORMAL": 17,
            "POSITION": 16,
            "TEXCOORD_0": 18
          },
          "indices": 19,
          "material": 0,
          "mode": 4
        }
      ]
    },
    {
      "name": "Object_5",
      "primitives": [
        {
          "attributes": {
            "NORMAL": 21,
            "POSITION": 20,
            "TEXCOORD_0": 22
          },
          "indices": 23,
          "material": 0,
          "mode": 4
        }
      ]
    },
    {
      "name": "Object_6",
      "primitives": [
        {
          "attributes": {
            "NORMAL": 25,
            "POSITION": 24,
            "TEXCOORD_0": 26
          },
          "indices": 27,
          "material": 0,
          "mode": 4
        }
      ]
    },
    {
      "name": "Object_7",
      "primitives": [
        {
          "attributes": {
            "NORMAL": 29,
            "POSITION": 28,
            "TEXCOORD_0": 30
          },
          "indices": 31,
          "material": 0,
          "mode": 4
        }
      ]
    },
    {
      "name": "Object_8",
      "primitives": [
        {
          "attributes": {
            "NORMAL": 33,
            "POSITION": 32,
            "TEXCOORD_0": 34
          },
          "indices": 35,
          "material": 0,
          "mode": 4
        }
      ]
    },
    {
      "name": "Object_9",
      "primitives": [
        {
          "attributes": {
            "NORMAL": 37,
            "POSITION": 36,
            "TEXCOORD_0": 38
          },
          "indices": 39,
          "material": 0,
          "mode": 4
        }
      ]
    },
    {
      "name": "Object_10",
      "primitives": [
        {
          "attributes": {
            "NORMAL": 41,
            "POSITION": 40,
            "TEXCOORD_0": 42
          },
          "indices": 43,
          "material": 0,
          "mode": 4
        }
      ]
    },
    {
      "name": "Object_11",
      "primitives": [
        {
          "attributes": {
            "NORMAL": 45,
            "POSITION": 44,
            "TEXCOORD_0": 46
          },
          "indices": 47,
          "material": 0,
          "mode": 4
        }
      ]
    }
  ],
  "nodes": [
    {
      "children": [
        1
      ],
      "matrix": [
        1.0,
        0.0,
        0.0,
        0.0,
        0.0,
        2.220446049250313e-16,
        -1.0,
        0.0,
        0.0,
        1.0,
        2.220446049250313e-16,
        0.0,
        0.0,
        0.0,
        0.0,
        1.0
      ],
      "name": "Sketchfab_model"
    },
    {
      "children": [
        2,
        3,
        4,
        5,
        6,
        7,
        8,
        9,
        10,
        11,
        12,
        13
      ],
      "name": "Hornet_export.obj.cleaner.materialmerger.gles"
    },
    {
      "mesh": 0,
      "name": "Object_2"
    },
    {
      "mesh": 1,
      "name": "Object_3"
    },
    {
      "mesh": 2,
      "name": "Object_4"
    },
    {
      "mesh": 3,
      "name": "Object_5"
    },
    {
      "mesh": 4,
      "name": "Object_6"
    },
    {
      "mesh": 5,
      "name": "Object_7"
    },
    {
      "mesh": 6,
      "name": "Object_8"
    },
    {
      "mesh": 7,
      "name": "Object_9"
    },
    {
      "mesh": 8,
      "name": "Object_10"
    },
    {
      "mesh": 9,
      "name": "Object_11"
    },
    {
      "mesh": 10,
      "name": "Object_12"
    },
    {
      "mesh": 11,
      "name": "Object_13"
    }
  ],
  "samplers": [
    {
      "magFilter": 9729,
      "minFilter": 9987,
      "wrapS": 10497,
      "wrapT": 10497
    }
  ],
  "scene": 0,
  "scenes": [
    {
      "name": "Sketchfab_Scene",
      "nodes": [
        0
      ]
    }
  ],
  "textures": [
    {
      "sampler": 0,
      "source": 0
    }
  ]
}
